<svg width="302" height="49" viewBox="0 0 302 49" fill="none" xmlns="http://www.w3.org/2000/svg">
<path d="M17.9091 48H0V1.45454H17.7273C22.5152 1.45454 26.6515 2.38636 30.1364 4.25C33.6364 6.09848 36.3333 8.76515 38.2273 12.25C40.1364 15.7197 41.0909 19.8788 41.0909 24.7273C41.0909 29.5758 40.1439 33.7424 38.25 37.2273C36.3561 40.697 33.6742 43.3636 30.2045 45.2273C26.7348 47.0758 22.6364 48 17.9091 48ZM12.6364 37.2727H17.4545C19.7576 37.2727 21.7197 36.9015 23.3409 36.1591C24.9773 35.4167 26.2197 34.1364 27.0682 32.3182C27.9318 30.5 28.3636 27.9697 28.3636 24.7273C28.3636 21.4848 27.9242 18.9545 27.0455 17.1364C26.1818 15.3182 24.9091 14.0379 23.2273 13.2955C21.5606 12.553 19.5152 12.1818 17.0909 12.1818H12.6364V37.2727ZM47.0284 48V38.9091L64.392 24.5455C65.5436 23.5909 66.5284 22.697 67.3466 21.8636C68.1799 21.0152 68.8163 20.1439 69.2557 19.25C69.7102 18.3561 69.9375 17.3636 69.9375 16.2727C69.9375 15.0758 69.6799 14.053 69.1648 13.2045C68.6648 12.3561 67.9678 11.7045 67.0739 11.25C66.1799 10.7803 65.1496 10.5455 63.983 10.5455C62.8163 10.5455 61.786 10.7803 60.892 11.25C60.0133 11.7197 59.3314 12.4091 58.8466 13.3182C58.3617 14.2273 58.1193 15.3333 58.1193 16.6364H46.1193C46.1193 13.3636 46.8542 10.5455 48.3239 8.18182C49.7936 5.81818 51.8693 4 54.5511 2.72727C57.233 1.45454 60.3769 0.81818 63.983 0.81818C67.7102 0.81818 70.9375 1.41667 73.6648 2.61364C76.4072 3.79545 78.5208 5.46212 80.0057 7.61364C81.5057 9.76515 82.2557 12.2879 82.2557 15.1818C82.2557 16.9697 81.8845 18.75 81.142 20.5227C80.3996 22.2803 79.0663 24.2273 77.142 26.3636C75.2178 28.5 72.483 31.0455 68.9375 34L64.5739 37.6364V37.9091H82.7557V48H47.0284ZM88.3125 48V1.45454H108.494C112.04 1.45454 115.017 1.93182 117.426 2.88636C119.85 3.84091 121.676 5.18939 122.903 6.93182C124.146 8.67424 124.767 10.7273 124.767 13.0909C124.767 14.803 124.388 16.3636 123.631 17.7727C122.888 19.1818 121.843 20.3636 120.494 21.3182C119.146 22.2576 117.57 22.9091 115.767 23.2727V23.7273C117.767 23.803 119.585 24.3106 121.222 25.25C122.858 26.1742 124.161 27.4545 125.131 29.0909C126.1 30.7121 126.585 32.6212 126.585 34.8182C126.585 37.3636 125.919 39.6288 124.585 41.6136C123.267 43.5985 121.388 45.1591 118.949 46.2955C116.509 47.4318 113.6 48 110.222 48H88.3125ZM100.949 37.9091H106.858C108.979 37.9091 110.57 37.5152 111.631 36.7273C112.691 35.9242 113.222 34.7424 113.222 33.1818C113.222 32.0909 112.972 31.1667 112.472 30.4091C111.972 29.6515 111.259 29.0758 110.335 28.6818C109.426 28.2879 108.328 28.0909 107.04 28.0909H100.949V37.9091ZM100.949 20.2727H106.131C107.237 20.2727 108.214 20.0985 109.062 19.75C109.911 19.4015 110.57 18.9015 111.04 18.25C111.525 17.5833 111.767 16.7727 111.767 15.8182C111.767 14.3788 111.252 13.2803 110.222 12.5227C109.191 11.75 107.888 11.3636 106.312 11.3636H100.949V20.2727ZM143.812 48V1.45454H163.994C167.54 1.45454 170.517 1.93182 172.926 2.88636C175.35 3.84091 177.176 5.18939 178.403 6.93182C179.646 8.67424 180.267 10.7273 180.267 13.0909C180.267 14.803 179.888 16.3636 179.131 17.7727C178.388 19.1818 177.343 20.3636 175.994 21.3182C174.646 22.2576 173.07 22.9091 171.267 23.2727V23.7273C173.267 23.803 175.085 24.3106 176.722 25.25C178.358 26.1742 179.661 27.4545 180.631 29.0909C181.6 30.7121 182.085 32.6212 182.085 34.8182C182.085 37.3636 181.419 39.6288 180.085 41.6136C178.767 43.5985 176.888 45.1591 174.449 46.2955C172.009 47.4318 169.1 48 165.722 48H143.812ZM156.449 37.9091H162.358C164.479 37.9091 166.07 37.5152 167.131 36.7273C168.191 35.9242 168.722 34.7424 168.722 33.1818C168.722 32.0909 168.472 31.1667 167.972 30.4091C167.472 29.6515 166.759 29.0758 165.835 28.6818C164.926 28.2879 163.828 28.0909 162.54 28.0909H156.449V37.9091ZM156.449 20.2727H161.631C162.737 20.2727 163.714 20.0985 164.562 19.75C165.411 19.4015 166.07 18.9015 166.54 18.25C167.025 17.5833 167.267 16.7727 167.267 15.8182C167.267 14.3788 166.752 13.2803 165.722 12.5227C164.691 11.75 163.388 11.3636 161.812 11.3636H156.449V20.2727ZM196.472 48.5455C194.244 48.5455 192.275 48.1818 190.562 47.4545C188.866 46.7121 187.532 45.5909 186.562 44.0909C185.593 42.5909 185.108 40.6818 185.108 38.3636C185.108 36.4545 185.434 34.8258 186.085 33.4773C186.737 32.1136 187.646 31 188.812 30.1364C189.979 29.2727 191.335 28.6136 192.881 28.1591C194.441 27.7045 196.123 27.4091 197.926 27.2727C199.881 27.1212 201.449 26.9394 202.631 26.7273C203.828 26.5 204.691 26.1894 205.222 25.7955C205.752 25.3864 206.017 24.8485 206.017 24.1818V24.0909C206.017 23.1818 205.669 22.4848 204.972 22C204.275 21.5152 203.381 21.2727 202.29 21.2727C201.093 21.2727 200.116 21.5379 199.358 22.0682C198.616 22.5833 198.169 23.3788 198.017 24.4545H186.472C186.623 22.3333 187.297 20.3788 188.494 18.5909C189.706 16.7879 191.472 15.3485 193.79 14.2727C196.108 13.1818 199.002 12.6364 202.472 12.6364C204.972 12.6364 207.214 12.9318 209.199 13.5227C211.184 14.0985 212.873 14.9091 214.267 15.9545C215.661 16.9848 216.722 18.197 217.449 19.5909C218.191 20.9697 218.562 22.4697 218.562 24.0909V48H206.835V43.0909H206.562C205.866 44.3939 205.017 45.447 204.017 46.25C203.032 47.053 201.903 47.6364 200.631 48C199.373 48.3636 197.987 48.5455 196.472 48.5455ZM200.562 40.6364C201.517 40.6364 202.411 40.4394 203.244 40.0455C204.093 39.6515 204.782 39.0833 205.312 38.3409C205.843 37.5985 206.108 36.697 206.108 35.6364V32.7273C205.775 32.8636 205.419 32.9924 205.04 33.1136C204.676 33.2348 204.282 33.3485 203.858 33.4545C203.449 33.5606 203.009 33.6591 202.54 33.75C202.085 33.8409 201.608 33.9242 201.108 34C200.138 34.1515 199.343 34.4015 198.722 34.75C198.116 35.0833 197.661 35.5 197.358 36C197.07 36.4848 196.926 37.0303 196.926 37.6364C196.926 38.6061 197.267 39.3485 197.949 39.8636C198.631 40.3788 199.502 40.6364 200.562 40.6364ZM237.102 28.3636V48H224.557V13.0909H236.466V19.7273H236.83C237.587 17.5152 238.92 15.7803 240.83 14.5227C242.754 13.2652 244.996 12.6364 247.557 12.6364C250.027 12.6364 252.17 13.2045 253.989 14.3409C255.822 15.4621 257.239 17.0076 258.239 18.9773C259.254 20.947 259.754 23.197 259.739 25.7273V48H247.193V28.3636C247.208 26.6364 246.769 25.2803 245.875 24.2955C244.996 23.3106 243.769 22.8182 242.193 22.8182C241.163 22.8182 240.261 23.0455 239.489 23.5C238.731 23.9394 238.148 24.5758 237.739 25.4091C237.33 26.2273 237.117 27.2121 237.102 28.3636ZM277.205 39.7273L277.295 24.8182H278.932L287.386 13.0909H301.477L287.295 31.3636H283.75L277.205 39.7273ZM265.932 48V1.45454H278.477V48H265.932ZM287.477 48L279.477 34.1818L287.659 25.2727L301.841 48H287.477Z" fill="#9734BA"/>
</svg>
