<svg width="305" height="107" viewBox="0 0 305 107" fill="none" xmlns="http://www.w3.org/2000/svg">
<path d="M20.9091 62H3V15.4545H20.7273C25.5152 15.4545 29.6515 16.3864 33.1364 18.25C36.6364 20.0985 39.3333 22.7651 41.2273 26.25C43.1364 29.7197 44.0909 33.8788 44.0909 38.7273C44.0909 43.5758 43.1439 47.7424 41.25 51.2273C39.3561 54.697 36.6742 57.3636 33.2045 59.2273C29.7348 61.0758 25.6364 62 20.9091 62ZM15.6364 51.2727H20.4545C22.7576 51.2727 24.7197 50.9015 26.3409 50.1591C27.9773 49.4167 29.2197 48.1364 30.0682 46.3182C30.9318 44.5 31.3636 41.9697 31.3636 38.7273C31.3636 35.4848 30.9242 32.9545 30.0455 31.1364C29.1818 29.3182 27.9091 28.0379 26.2273 27.2955C24.5606 26.553 22.5152 26.1818 20.0909 26.1818H15.6364V51.2727ZM50.0284 62V52.9091L67.392 38.5455C68.5436 37.5909 69.5284 36.697 70.3466 35.8636C71.1799 35.0152 71.8163 34.1439 72.2557 33.25C72.7102 32.3561 72.9375 31.3636 72.9375 30.2727C72.9375 29.0758 72.6799 28.053 72.1648 27.2045C71.6648 26.3561 70.9678 25.7045 70.0739 25.25C69.1799 24.7803 68.1496 24.5455 66.983 24.5455C65.8163 24.5455 64.786 24.7803 63.892 25.25C63.0133 25.7197 62.3314 26.4091 61.8466 27.3182C61.3617 28.2273 61.1193 29.3333 61.1193 30.6364H49.1193C49.1193 27.3636 49.8542 24.5455 51.3239 22.1818C52.7936 19.8182 54.8693 18 57.5511 16.7273C60.233 15.4545 63.3769 14.8182 66.983 14.8182C70.7102 14.8182 73.9375 15.4167 76.6648 16.6136C79.4072 17.7955 81.5208 19.4621 83.0057 21.6136C84.5057 23.7652 85.2557 26.2879 85.2557 29.1818C85.2557 30.9697 84.8845 32.75 84.142 34.5227C83.3996 36.2803 82.0663 38.2273 80.142 40.3636C78.2178 42.5 75.483 45.0455 71.9375 48L67.5739 51.6364V51.9091H85.7557V62H50.0284ZM91.3125 62V15.4545H111.494C115.04 15.4545 118.017 15.9318 120.426 16.8864C122.85 17.8409 124.676 19.1894 125.903 20.9318C127.146 22.6742 127.767 24.7273 127.767 27.0909C127.767 28.803 127.388 30.3636 126.631 31.7727C125.888 33.1818 124.843 34.3636 123.494 35.3182C122.146 36.2576 120.57 36.9091 118.767 37.2727V37.7273C120.767 37.803 122.585 38.3106 124.222 39.25C125.858 40.1742 127.161 41.4545 128.131 43.0909C129.1 44.7121 129.585 46.6212 129.585 48.8182C129.585 51.3636 128.919 53.6288 127.585 55.6136C126.267 57.5985 124.388 59.1591 121.949 60.2955C119.509 61.4318 116.6 62 113.222 62H91.3125ZM103.949 51.9091H109.858C111.979 51.9091 113.57 51.5152 114.631 50.7273C115.691 49.9242 116.222 48.7424 116.222 47.1818C116.222 46.0909 115.972 45.1667 115.472 44.4091C114.972 43.6515 114.259 43.0758 113.335 42.6818C112.426 42.2879 111.328 42.0909 110.04 42.0909H103.949V51.9091ZM103.949 34.2727H109.131C110.237 34.2727 111.214 34.0985 112.062 33.75C112.911 33.4015 113.57 32.9015 114.04 32.25C114.525 31.5833 114.767 30.7727 114.767 29.8182C114.767 28.3788 114.252 27.2803 113.222 26.5227C112.191 25.75 110.888 25.3636 109.312 25.3636H103.949V34.2727ZM146.812 62V15.4545H166.994C170.54 15.4545 173.517 15.9318 175.926 16.8864C178.35 17.8409 180.176 19.1894 181.403 20.9318C182.646 22.6742 183.267 24.7273 183.267 27.0909C183.267 28.803 182.888 30.3636 182.131 31.7727C181.388 33.1818 180.343 34.3636 178.994 35.3182C177.646 36.2576 176.07 36.9091 174.267 37.2727V37.7273C176.267 37.803 178.085 38.3106 179.722 39.25C181.358 40.1742 182.661 41.4545 183.631 43.0909C184.6 44.7121 185.085 46.6212 185.085 48.8182C185.085 51.3636 184.419 53.6288 183.085 55.6136C181.767 57.5985 179.888 59.1591 177.449 60.2955C175.009 61.4318 172.1 62 168.722 62H146.812ZM159.449 51.9091H165.358C167.479 51.9091 169.07 51.5152 170.131 50.7273C171.191 49.9242 171.722 48.7424 171.722 47.1818C171.722 46.0909 171.472 45.1667 170.972 44.4091C170.472 43.6515 169.759 43.0758 168.835 42.6818C167.926 42.2879 166.828 42.0909 165.54 42.0909H159.449V51.9091ZM159.449 34.2727H164.631C165.737 34.2727 166.714 34.0985 167.562 33.75C168.411 33.4015 169.07 32.9015 169.54 32.25C170.025 31.5833 170.267 30.7727 170.267 29.8182C170.267 28.3788 169.752 27.2803 168.722 26.5227C167.691 25.75 166.388 25.3636 164.812 25.3636H159.449V34.2727ZM199.472 62.5455C197.244 62.5455 195.275 62.1818 193.562 61.4545C191.866 60.7121 190.532 59.5909 189.562 58.0909C188.593 56.5909 188.108 54.6818 188.108 52.3636C188.108 50.4545 188.434 48.8258 189.085 47.4773C189.737 46.1136 190.646 45 191.812 44.1364C192.979 43.2727 194.335 42.6136 195.881 42.1591C197.441 41.7045 199.123 41.4091 200.926 41.2727C202.881 41.1212 204.449 40.9394 205.631 40.7273C206.828 40.5 207.691 40.1894 208.222 39.7955C208.752 39.3864 209.017 38.8485 209.017 38.1818V38.0909C209.017 37.1818 208.669 36.4848 207.972 36C207.275 35.5152 206.381 35.2727 205.29 35.2727C204.093 35.2727 203.116 35.5379 202.358 36.0682C201.616 36.5833 201.169 37.3788 201.017 38.4545H189.472C189.623 36.3333 190.297 34.3788 191.494 32.5909C192.706 30.7879 194.472 29.3485 196.79 28.2727C199.108 27.1818 202.002 26.6364 205.472 26.6364C207.972 26.6364 210.214 26.9318 212.199 27.5227C214.184 28.0985 215.873 28.9091 217.267 29.9545C218.661 30.9848 219.722 32.197 220.449 33.5909C221.191 34.9697 221.562 36.4697 221.562 38.0909V62H209.835V57.0909H209.562C208.866 58.3939 208.017 59.447 207.017 60.25C206.032 61.053 204.903 61.6364 203.631 62C202.373 62.3636 200.987 62.5455 199.472 62.5455ZM203.562 54.6364C204.517 54.6364 205.411 54.4394 206.244 54.0455C207.093 53.6515 207.782 53.0833 208.312 52.3409C208.843 51.5985 209.108 50.697 209.108 49.6364V46.7273C208.775 46.8636 208.419 46.9924 208.04 47.1136C207.676 47.2348 207.282 47.3485 206.858 47.4545C206.449 47.5606 206.009 47.6591 205.54 47.75C205.085 47.8409 204.608 47.9242 204.108 48C203.138 48.1515 202.343 48.4015 201.722 48.75C201.116 49.0833 200.661 49.5 200.358 50C200.07 50.4848 199.926 51.0303 199.926 51.6364C199.926 52.6061 200.267 53.3485 200.949 53.8636C201.631 54.3788 202.502 54.6364 203.562 54.6364ZM240.102 42.3636V62H227.557V27.0909H239.466V33.7273H239.83C240.587 31.5152 241.92 29.7803 243.83 28.5227C245.754 27.2652 247.996 26.6364 250.557 26.6364C253.027 26.6364 255.17 27.2045 256.989 28.3409C258.822 29.4621 260.239 31.0076 261.239 32.9773C262.254 34.947 262.754 37.197 262.739 39.7273V62H250.193V42.3636C250.208 40.6364 249.769 39.2803 248.875 38.2955C247.996 37.3106 246.769 36.8182 245.193 36.8182C244.163 36.8182 243.261 37.0455 242.489 37.5C241.731 37.9394 241.148 38.5758 240.739 39.4091C240.33 40.2273 240.117 41.2121 240.102 42.3636ZM280.205 53.7273L280.295 38.8182H281.932L290.386 27.0909H304.477L290.295 45.3636H286.75L280.205 53.7273ZM268.932 62V15.4545H281.477V62H268.932ZM290.477 62L282.477 48.1818L290.659 39.2727L304.841 62H290.477Z" fill="#9734BA"/>
<rect x="148" y="71" width="157" height="36" fill="#1E1E1E"/>
<path d="M179.125 97V79.5455H183.83V86.1932H183.898C184.068 85.75 184.318 85.3437 184.648 84.9744C184.977 84.5994 185.386 84.3011 185.875 84.0795C186.364 83.8523 186.932 83.7386 187.58 83.7386C188.443 83.7386 189.264 83.9688 190.043 84.429C190.827 84.8892 191.463 85.6136 191.952 86.6023C192.446 87.5909 192.693 88.875 192.693 90.4545C192.693 91.9659 192.457 93.2187 191.986 94.2131C191.52 95.2074 190.895 95.9489 190.111 96.4375C189.332 96.9261 188.477 97.1705 187.545 97.1705C186.932 97.1705 186.384 97.071 185.901 96.8722C185.423 96.6676 185.014 96.392 184.673 96.0455C184.338 95.6932 184.08 95.2955 183.898 94.8523H183.795V97H179.125ZM183.727 90.4545C183.727 91.0909 183.81 91.642 183.974 92.108C184.145 92.5682 184.384 92.9261 184.69 93.1818C185.003 93.4318 185.375 93.5568 185.807 93.5568C186.239 93.5568 186.605 93.4347 186.906 93.1903C187.213 92.9403 187.446 92.5852 187.605 92.125C187.77 91.6591 187.852 91.1023 187.852 90.4545C187.852 89.8068 187.77 89.2528 187.605 88.7926C187.446 88.3267 187.213 87.9716 186.906 87.7273C186.605 87.4773 186.239 87.3523 185.807 87.3523C185.375 87.3523 185.003 87.4773 184.69 87.7273C184.384 87.9716 184.145 88.3267 183.974 88.7926C183.81 89.2528 183.727 89.8068 183.727 90.4545ZM198.31 97.2045C197.474 97.2045 196.736 97.0682 196.094 96.7955C195.457 96.517 194.957 96.0966 194.594 95.5341C194.23 94.9716 194.048 94.2557 194.048 93.3864C194.048 92.6705 194.17 92.0597 194.415 91.554C194.659 91.0426 195 90.625 195.438 90.3011C195.875 89.9773 196.384 89.7301 196.963 89.5597C197.548 89.3892 198.179 89.2784 198.855 89.2273C199.588 89.1705 200.176 89.1023 200.619 89.0227C201.068 88.9375 201.392 88.821 201.591 88.6733C201.79 88.5199 201.889 88.3182 201.889 88.0682V88.0341C201.889 87.6932 201.759 87.4318 201.497 87.25C201.236 87.0682 200.901 86.9773 200.491 86.9773C200.043 86.9773 199.676 87.0767 199.392 87.2756C199.114 87.4687 198.946 87.767 198.889 88.1705H194.56C194.616 87.375 194.869 86.642 195.318 85.9716C195.773 85.2955 196.435 84.7557 197.304 84.3523C198.173 83.9432 199.259 83.7386 200.56 83.7386C201.497 83.7386 202.338 83.8494 203.082 84.071C203.827 84.2869 204.46 84.5909 204.983 84.983C205.506 85.3693 205.903 85.8239 206.176 86.3466C206.455 86.8636 206.594 87.4261 206.594 88.0341V97H202.196V95.1591H202.094C201.832 95.6477 201.514 96.0426 201.139 96.3438C200.77 96.6449 200.347 96.8636 199.869 97C199.398 97.1364 198.878 97.2045 198.31 97.2045ZM199.844 94.2386C200.202 94.2386 200.537 94.1648 200.849 94.017C201.168 93.8693 201.426 93.6562 201.625 93.3778C201.824 93.0994 201.923 92.7614 201.923 92.3636V91.2727C201.798 91.3239 201.665 91.3722 201.523 91.4176C201.386 91.4631 201.239 91.5057 201.08 91.5455C200.926 91.5852 200.761 91.6222 200.585 91.6562C200.415 91.6903 200.236 91.7216 200.048 91.75C199.685 91.8068 199.386 91.9006 199.153 92.0312C198.926 92.1562 198.756 92.3125 198.642 92.5C198.534 92.6818 198.48 92.8864 198.48 93.1136C198.48 93.4773 198.608 93.7557 198.864 93.9489C199.119 94.142 199.446 94.2386 199.844 94.2386ZM215.148 97.2386C213.728 97.2386 212.512 96.9574 211.501 96.3949C210.489 95.8267 209.714 95.0369 209.174 94.0256C208.634 93.0085 208.364 91.8295 208.364 90.4886C208.364 89.1477 208.634 87.9716 209.174 86.9602C209.714 85.9432 210.489 85.1534 211.501 84.5909C212.512 84.0227 213.728 83.7386 215.148 83.7386C216.433 83.7386 217.543 83.9716 218.481 84.4375C219.424 84.8977 220.154 85.5511 220.671 86.3977C221.188 87.2386 221.45 88.2273 221.455 89.3636H217.092C217.029 88.6761 216.83 88.1534 216.495 87.7955C216.165 87.4318 215.739 87.25 215.217 87.25C214.808 87.25 214.45 87.3693 214.143 87.608C213.836 87.8409 213.597 88.196 213.427 88.6733C213.256 89.1449 213.171 89.7386 213.171 90.4545C213.171 91.1705 213.256 91.767 213.427 92.2443C213.597 92.7159 213.836 93.071 214.143 93.3097C214.45 93.5426 214.808 93.6591 215.217 93.6591C215.563 93.6591 215.87 93.5795 216.137 93.4205C216.404 93.2557 216.62 93.017 216.785 92.7045C216.955 92.3864 217.058 92 217.092 91.5455H221.455C221.438 92.6989 221.174 93.7045 220.663 94.5625C220.151 95.4148 219.427 96.0739 218.489 96.5398C217.558 97.0057 216.444 97.2386 215.148 97.2386ZM227.624 93.8977L227.658 88.3068H228.271L231.442 83.9091H236.726L231.408 90.7614H230.078L227.624 93.8977ZM223.396 97V79.5455H228.101V97H223.396ZM231.476 97L228.476 91.8182L231.544 88.4773L236.862 97H231.476ZM243.685 97.2386C242.287 97.2386 241.082 96.9716 240.071 96.4375C239.065 95.8977 238.29 95.125 237.744 94.1193C237.205 93.108 236.935 91.8977 236.935 90.4886C236.935 89.1364 237.207 87.9545 237.753 86.9432C238.298 85.9318 239.068 85.1449 240.062 84.5824C241.057 84.0199 242.23 83.7386 243.582 83.7386C244.571 83.7386 245.466 83.892 246.267 84.1989C247.068 84.5057 247.753 84.9517 248.321 85.5369C248.889 86.1165 249.327 86.821 249.634 87.6506C249.94 88.4801 250.094 89.4148 250.094 90.4545V91.5455H238.401V88.9545H245.764C245.759 88.5795 245.662 88.25 245.474 87.9659C245.293 87.6761 245.045 87.4517 244.733 87.2926C244.426 87.1278 244.077 87.0455 243.685 87.0455C243.304 87.0455 242.955 87.1278 242.636 87.2926C242.318 87.4517 242.063 87.6733 241.869 87.9574C241.682 88.2415 241.582 88.5739 241.571 88.9545V91.75C241.571 92.1705 241.659 92.5455 241.835 92.875C242.011 93.2045 242.264 93.4631 242.594 93.6506C242.923 93.8381 243.321 93.9318 243.787 93.9318C244.111 93.9318 244.406 93.8864 244.673 93.7955C244.946 93.7045 245.179 93.5739 245.372 93.4034C245.565 93.2273 245.707 93.017 245.798 92.7727H250.094C249.946 93.6818 249.597 94.4716 249.045 95.142C248.494 95.8068 247.764 96.3239 246.855 96.6932C245.952 97.0568 244.895 97.2386 243.685 97.2386ZM256.718 89.6364V97H252.013V83.9091H256.479V86.3977H256.616C256.9 85.5682 257.4 84.9176 258.116 84.446C258.837 83.9744 259.678 83.7386 260.638 83.7386C261.565 83.7386 262.369 83.9517 263.05 84.3778C263.738 84.7983 264.269 85.3778 264.644 86.1165C265.025 86.8551 265.212 87.6989 265.207 88.6477V97H260.502V89.6364C260.508 88.9886 260.343 88.4801 260.008 88.1108C259.678 87.7415 259.218 87.5568 258.627 87.5568C258.241 87.5568 257.903 87.642 257.613 87.8125C257.329 87.9773 257.11 88.2159 256.957 88.5284C256.803 88.8352 256.724 89.2045 256.718 89.6364ZM272.268 97.1705C271.336 97.1705 270.478 96.9261 269.694 96.4375C268.915 95.9489 268.29 95.2074 267.819 94.2131C267.353 93.2187 267.12 91.9659 267.12 90.4545C267.12 88.875 267.364 87.5909 267.853 86.6023C268.347 85.6136 268.984 84.8892 269.762 84.429C270.546 83.9688 271.37 83.7386 272.234 83.7386C272.881 83.7386 273.45 83.8523 273.938 84.0795C274.427 84.3011 274.836 84.5994 275.165 84.9744C275.495 85.3437 275.745 85.75 275.915 86.1932H275.984V79.5455H280.688V97H276.018V94.8523H275.915C275.734 95.2955 275.472 95.6932 275.131 96.0455C274.796 96.392 274.387 96.6676 273.904 96.8722C273.427 97.071 272.881 97.1705 272.268 97.1705ZM274.006 93.5568C274.438 93.5568 274.808 93.4318 275.114 93.1818C275.427 92.9261 275.665 92.5682 275.83 92.108C276.001 91.642 276.086 91.0909 276.086 90.4545C276.086 89.8068 276.001 89.2528 275.83 88.7926C275.665 88.3267 275.427 87.9716 275.114 87.7273C274.808 87.4773 274.438 87.3523 274.006 87.3523C273.575 87.3523 273.205 87.4773 272.898 87.7273C272.597 87.9716 272.364 88.3267 272.2 88.7926C272.04 89.2528 271.961 89.8068 271.961 90.4545C271.961 91.1023 272.04 91.6591 272.2 92.125C272.364 92.5852 272.597 92.9403 272.898 93.1903C273.205 93.4347 273.575 93.5568 274.006 93.5568Z" fill="white"/>
</svg>
